# xmcd
#
# Track frame offsets:
#   150
#   26469
#   43344
#   64360
#   81570
#   98743
#   114678
#   127510
#   142245
#   155483
#   168967
#   198519
#   215397
#   237675
#
# Disc length: 3434 seconds
#
# Revision: 0
# Processed by: cddbd v1.5.1PL2 Copyright (c) Steve Scherf et al.
# Submitted via: uFREEDB 1.6.2
#
DISCID=ce0d680e
DTITLE=The Top Song 10 - The Top Song 10
DYEAR=1970
DGENRE=UnClassifiable
TTITLE0=Don't crt for me Argentina
TTITLE1=Moonlight flower
TTITLE2=Casablanca
TTITLE3=Midnight blue
TTITLE4=You're only lonely
TTITLE5=I know a heartache when I see one
TTITLE6=I just fall in love again
TTITLE7=Could  I have this dance
TTITLE8=Sharing the night together
TTITLE9=When you're in love with a beautiful woman
TTITLE10=Hotel California
TTITLE11=The long run
TTITLE12=Too much Heaven
TTITLE13=Babe
EXTD=
EXTT0=
EXTT1=
EXTT2=
EXTT3=
EXTT4=
EXTT5=
EXTT6=
EXTT7=
EXTT8=
EXTT9=
EXTT10=
EXTT11=
EXTT12=
EXTT13=
PLAYORDER=
